<svg version="1.1" xmlns="http://www.w3.org/2000/svg" viewBox="0 0 2946.0654761904766 1209.9583333333326" width="2946.0654761904766" height="1209.9583333333326" filter="invert(93%) hue-rotate(180deg)">
  <!-- svg-source:excalidraw -->
  
  <defs>
    <style class="style-fonts">
      @font-face {
        font-family: "Virgil";
        src: url("https://excalidraw.com/Virgil.woff2");
      }
      @font-face {
        font-family: "Cascadia";
        src: url("https://excalidraw.com/Cascadia.woff2");
      }
      @font-face {
        font-family: "Assistant";
        src: url("https://excalidraw.com/Assistant-Regular.woff2");
      }
    </style>
    
  </defs>
  <rect x="0" y="0" width="2946.0654761904766" height="1209.9583333333326" fill="#ffffff"></rect><g stroke-linecap="round" transform="translate(572.7083333333348 10) rotate(0 727.9166666666663 39.79166666666697)"><path d="M19.9 0 C563.33 4.79, 1105.91 4.95, 1435.94 0 M19.9 0 C370.05 2.82, 720.56 2.66, 1435.94 0 M1435.94 0 C1450.73 -1.91, 1455.48 8.23, 1455.83 19.9 M1435.94 0 C1447.44 0.06, 1455.08 6.85, 1455.83 19.9 M1455.83 19.9 C1455.16 29.36, 1455.82 38.08, 1455.83 59.69 M1455.83 19.9 C1455.51 30.27, 1456.83 41.59, 1455.83 59.69 M1455.83 59.69 C1455.85 71.3, 1449.36 79.41, 1435.94 79.58 M1455.83 59.69 C1454.58 74.91, 1447.65 77.49, 1435.94 79.58 M1435.94 79.58 C1021.87 74.45, 607.32 74.56, 19.9 79.58 M1435.94 79.58 C977.72 77.24, 519.19 77.36, 19.9 79.58 M19.9 79.58 C8.35 78.12, 0.56 74.71, 0 59.69 M19.9 79.58 C6.93 79.56, 1.42 75.13, 0 59.69 M0 59.69 C0.38 44.01, 0.45 33.1, 0 19.9 M0 59.69 C0.09 46.45, -0.41 31.74, 0 19.9 M0 19.9 C1.98 5.42, 5.61 1.24, 19.9 0 M0 19.9 C-1.79 6.02, 6.39 -0.44, 19.9 0" stroke="#e03131" stroke-width="2" fill="none"></path></g><g transform="translate(1260.610351562501 38.29166666666697) rotate(0 40.0146484375 11.5)"><text x="40.0146484375" y="0" font-family="Helvetica, Segoe UI Emoji" font-size="20px" fill="#e03131" text-anchor="middle" style="white-space: pre;" direction="ltr" dominant-baseline="text-before-edge">fire-route</text></g><g stroke-linecap="round" transform="translate(671.6964285714294 547.7083333333321) rotate(0 107.08333333333303 39.79166666666674)"><path d="M19.9 0 C58.57 -3.2, 101.12 0.55, 194.27 0 M19.9 0 C73.63 -1.46, 125.83 -2.5, 194.27 0 M194.27 0 C209.31 1.84, 214.68 5.8, 214.17 19.9 M194.27 0 C207.46 0.44, 214.5 6.44, 214.17 19.9 M214.17 19.9 C212.78 30.43, 213.95 41.58, 214.17 59.69 M214.17 19.9 C214.77 33.74, 214.59 47.31, 214.17 59.69 M214.17 59.69 C213.27 74.26, 205.93 81.29, 194.27 79.58 M214.17 59.69 C215.6 75.23, 209.76 78.37, 194.27 79.58 M194.27 79.58 C142.64 80.1, 94.73 79.78, 19.9 79.58 M194.27 79.58 C152.48 78.63, 110.32 78.74, 19.9 79.58 M19.9 79.58 C8.41 78.69, -0.04 72.16, 0 59.69 M19.9 79.58 C6.54 81.1, -1.2 72.63, 0 59.69 M0 59.69 C0.89 49.85, -1.17 42.27, 0 19.9 M0 59.69 C0.39 43.34, -0.03 27.81, 0 19.9 M0 19.9 C0.37 6.3, 6.19 0.8, 19.9 0 M0 19.9 C1.24 8.06, 4.65 -0.3, 19.9 0" stroke="#e03131" stroke-width="2" fill="none"></path></g><g transform="translate(747.6567150297624 575.9999999999991) rotate(0 31.123046875 11.5)"><text x="31.123046875" y="0" font-family="Helvetica, Segoe UI Emoji" font-size="20px" fill="#e03131" text-anchor="middle" style="white-space: pre;" direction="ltr" dominant-baseline="text-before-edge">fire-opt</text></g><g stroke-linecap="round" transform="translate(2190.863095238096 948.1249999999986) rotate(0 229.94047619047592 39.79166666666674)"><path d="M19.9 0 C141.3 0.71, 263.53 0.33, 439.99 0 M19.9 0 C174.89 1.71, 328.95 1.21, 439.99 0 M439.99 0 C452.88 -1.69, 459.46 4.9, 459.88 19.9 M439.99 0 C452.8 2.26, 459.94 8.64, 459.88 19.9 M459.88 19.9 C459.47 33.37, 461.48 45.11, 459.88 59.69 M459.88 19.9 C460.12 35.91, 460.48 51.29, 459.88 59.69 M459.88 59.69 C460.1 71.73, 452.56 78.69, 439.99 79.58 M459.88 59.69 C460.41 70.74, 451.49 80.82, 439.99 79.58 M439.99 79.58 C302.19 82.05, 165.01 81.3, 19.9 79.58 M439.99 79.58 C335.83 77.82, 232.7 78.73, 19.9 79.58 M19.9 79.58 C8.47 78.84, -1.32 72.58, 0 59.69 M19.9 79.58 C8.62 81.76, -0.86 74.62, 0 59.69 M0 59.69 C0.8 46.37, 0.62 31.84, 0 19.9 M0 59.69 C-0.66 47.91, 0.6 34.78, 0 19.9 M0 19.9 C-1.1 6.7, 7.46 -1.06, 19.9 0 M0 19.9 C0.31 4.68, 8.88 0.68, 19.9 0" stroke="#e03131" stroke-width="2" fill="none"></path></g><g transform="translate(2388.0203683035716 976.4166666666656) rotate(0 32.783203125 11.5)"><text x="32.783203125" y="0" font-family="Helvetica, Segoe UI Emoji" font-size="20px" fill="#e03131" text-anchor="middle" style="white-space: pre;" direction="ltr" dominant-baseline="text-before-edge">fire-svg</text></g><g stroke-linecap="round" transform="translate(1096.1289682539682 1114.374999999999) rotate(0 414.63888888888914 42.79166666666674)"><path d="M21.4 0 C325.63 3.34, 628.95 3.39, 807.88 0 M21.4 0 C270.45 1.94, 520.04 2.45, 807.88 0 M807.88 0 C821.21 -0.18, 829.14 7.05, 829.28 21.4 M807.88 0 C820.69 1.51, 827.12 5.2, 829.28 21.4 M829.28 21.4 C829.53 32.76, 828.68 44.95, 829.28 64.19 M829.28 21.4 C829.77 38.09, 830.25 53.56, 829.28 64.19 M829.28 64.19 C829.94 79.97, 823.89 86.37, 807.88 85.58 M829.28 64.19 C830.28 78.85, 821.58 84.23, 807.88 85.58 M807.88 85.58 C520.11 83.56, 232.52 83.39, 21.4 85.58 M807.88 85.58 C501.41 88.14, 194.4 87.89, 21.4 85.58 M21.4 85.58 C7.77 84.85, 0.72 78.89, 0 64.19 M21.4 85.58 C8.15 83.97, -1.61 76.97, 0 64.19 M0 64.19 C0.77 56.01, 1.88 47.56, 0 21.4 M0 64.19 C-0.54 55.07, 1.14 44.96, 0 21.4 M0 21.4 C-1.3 7.35, 8.21 0.03, 21.4 0 M0 21.4 C0.03 6.98, 7.01 -0.97, 21.4 0" stroke="#e03131" stroke-width="2" fill="none"></path></g><g transform="translate(1482.4377790178569 1145.666666666666) rotate(0 28.330078125 11.5)"><text x="28.330078125" y="0" font-family="Helvetica, Segoe UI Emoji" font-size="20px" fill="#e03131" text-anchor="middle" style="white-space: pre;" direction="ltr" dominant-baseline="text-before-edge">fire-rvt</text></g><g stroke-linecap="round" transform="translate(1809.375 633.7797619047606) rotate(0 107.08333333333303 39.79166666666674)"><path d="M19.9 0 C73.95 2.53, 133.36 0.9, 194.27 0 M19.9 0 C59.38 0.41, 99.2 -0.37, 194.27 0 M194.27 0 C206.18 -0.21, 213.8 6.17, 214.17 19.9 M194.27 0 C208.95 -0.84, 215.92 7.48, 214.17 19.9 M214.17 19.9 C211.97 34.67, 213.52 47.23, 214.17 59.69 M214.17 19.9 C214.86 34.14, 213.62 48.24, 214.17 59.69 M214.17 59.69 C214.86 71.56, 208.54 78.6, 194.27 79.58 M214.17 59.69 C212.08 71.96, 207.32 81.4, 194.27 79.58 M194.27 79.58 C135.12 79.92, 72.15 79.25, 19.9 79.58 M194.27 79.58 C125.83 77.54, 57.21 77.9, 19.9 79.58 M19.9 79.58 C7.83 78.53, -1.11 72.71, 0 59.69 M19.9 79.58 C7.35 81.73, -1.86 73.92, 0 59.69 M0 59.69 C1.99 49.54, 0.98 40.88, 0 19.9 M0 59.69 C0.45 43.58, -0.79 28.52, 0 19.9 M0 19.9 C-0.61 5.85, 6.7 -1.8, 19.9 0 M0 19.9 C1.36 7.37, 6.69 1.26, 19.9 0" stroke="#e03131" stroke-width="2" fill="none"></path></g><g transform="translate(1879.783528645833 662.0714285714275) rotate(0 36.6748046875 11.5)"><text x="36.6748046875" y="0" font-family="Helvetica, Segoe UI Emoji" font-size="20px" fill="#e03131" text-anchor="middle" style="white-space: pre;" direction="ltr" dominant-baseline="text-before-edge">fire-infer</text></g><g stroke-linecap="round" transform="translate(1158.125 452.52976190476056) rotate(0 176.45833333333303 115.41666666666674)"><path d="M32 0 C146.81 0.33, 259.3 -0.86, 320.92 0 M32 0 C91.76 1.09, 151.41 0.89, 320.92 0 M320.92 0 C342.83 -1.88, 351.88 10.75, 352.92 32 M320.92 0 C341.41 1.92, 354.96 11.9, 352.92 32 M352.92 32 C351.67 66.3, 353.61 101.89, 352.92 198.83 M352.92 32 C353.34 73.16, 353.9 116.44, 352.92 198.83 M352.92 198.83 C352.45 220.36, 340.85 230.76, 320.92 230.83 M352.92 198.83 C351.74 218.64, 342.5 231.43, 320.92 230.83 M320.92 230.83 C211.4 231.58, 104.56 231.35, 32 230.83 M320.92 230.83 C237.88 230.95, 155.2 231.03, 32 230.83 M32 230.83 C8.92 229.85, 0.78 219.05, 0 198.83 M32 230.83 C10.71 229.5, -1.32 222.28, 0 198.83 M0 198.83 C0.51 130.99, 2.56 67.91, 0 32 M0 198.83 C1.88 143.14, 0.78 88.79, 0 32 M0 32 C1.66 12.35, 10.54 0.49, 32 0 M0 32 C1.03 8.98, 11.74 0.6, 32 0" stroke="#1e1e1e" stroke-width="2" fill="none"></path></g><g transform="translate(1191.180013020833 498.94642857142753) rotate(0 143.4033203125 69)"><text x="143.4033203125" y="0" font-family="Helvetica, Segoe UI Emoji" font-size="20px" fill="#1e1e1e" text-anchor="middle" style="white-space: pre;" direction="ltr" dominant-baseline="text-before-edge">Synthetic Dataset containing:</text><text x="143.4033203125" y="23" font-family="Helvetica, Segoe UI Emoji" font-size="20px" fill="#1e1e1e" text-anchor="middle" style="white-space: pre;" direction="ltr" dominant-baseline="text-before-edge">- Room Finish Boundary</text><text x="143.4033203125" y="46" font-family="Helvetica, Segoe UI Emoji" font-size="20px" fill="#1e1e1e" text-anchor="middle" style="white-space: pre;" direction="ltr" dominant-baseline="text-before-edge">- Room Obstacles </text><text x="143.4033203125" y="69" font-family="Helvetica, Segoe UI Emoji" font-size="20px" fill="#1e1e1e" text-anchor="middle" style="white-space: pre;" direction="ltr" dominant-baseline="text-before-edge">- Good Extinguisher Placements</text><text x="143.4033203125" y="92" font-family="Helvetica, Segoe UI Emoji" font-size="20px" fill="#1e1e1e" text-anchor="middle" style="white-space: pre;" direction="ltr" dominant-baseline="text-before-edge">- Bad Extinguisher Placements</text><text x="143.4033203125" y="115" font-family="Helvetica, Segoe UI Emoji" font-size="20px" fill="#1e1e1e" text-anchor="middle" style="white-space: pre;" direction="ltr" dominant-baseline="text-before-edge">- Travel routes to extinguishers</text></g><g mask="url(#mask-9GCCj02yUzWtKYVZCJGXp)" stroke-linecap="round"><g transform="translate(888.7797619047633 591.1010485526804) rotate(0 132.58928571428532 -1.1904938901600417)"><path d="M-0.67 0.55 C43.47 0.01, 220.42 -2.65, 264.53 -3.18 M1.18 -0.21 C45.75 -0.61, 222.72 -1.85, 266.9 -2.06" stroke="#1e1e1e" stroke-width="2" fill="none"></path></g><g transform="translate(888.7797619047633 591.1010485526804) rotate(0 132.58928571428532 -1.1904938901600417)"><path d="M238.77 8.37 C247.33 4.61, 252.73 0.88, 266.9 -2.06 M238.77 8.37 C246.6 6.47, 254.49 2.47, 266.9 -2.06" stroke="#1e1e1e" stroke-width="2" fill="none"></path></g><g transform="translate(888.7797619047633 591.1010485526804) rotate(0 132.58928571428532 -1.1904938901600417)"><path d="M238.65 -12.15 C247.25 -10.33, 252.68 -8.48, 266.9 -2.06 M238.65 -12.15 C246.63 -8.36, 254.55 -6.68, 266.9 -2.06" stroke="#1e1e1e" stroke-width="2" fill="none"></path></g></g><mask id="mask-9GCCj02yUzWtKYVZCJGXp"><rect x="0" y="0" fill="#fff" width="1253.958333333334" height="693.4820363330005"></rect><rect x="980.2606491815486" y="578.4105546625206" fill="#000" width="82.216796875" height="23" opacity="1"></rect></mask><g transform="translate(980.2606491815486 578.4105546625206) rotate(0 41.63434061639009 11.375906499102484)"><text x="41.1083984375" y="0" font-family="Helvetica, Segoe UI Emoji" font-size="20px" fill="#1e1e1e" text-anchor="middle" style="white-space: pre;" direction="ltr" dominant-baseline="text-before-edge">OUTPUT</text></g><g mask="url(#mask-URKT37AJ6esH5IVTrdW-C)" stroke-linecap="round"><g transform="translate(682.1543011082467 533.7499999999986) rotate(0 -10.954714259293269 -214.04761904761858)"><path d="M-0.13 1.16 C-3.85 -69.93, -18.72 -355.98, -22.25 -427.52 M-1.66 0.73 C-5.57 -70.64, -20.03 -358.1, -23.38 -429.34" stroke="#1e1e1e" stroke-width="2" fill="none"></path></g><g transform="translate(682.1543011082467 533.7499999999986) rotate(0 -10.954714259293269 -214.04761904761858)"><path d="M-11.75 -401.69 C-13.12 -410.68, -17.64 -417.51, -23.38 -429.34 M-11.75 -401.69 C-14.96 -409.89, -18.33 -419.5, -23.38 -429.34" stroke="#1e1e1e" stroke-width="2" fill="none"></path></g><g transform="translate(682.1543011082467 533.7499999999986) rotate(0 -10.954714259293269 -214.04761904761858)"><path d="M-32.25 -400.68 C-27.38 -409.95, -25.67 -417.09, -23.38 -429.34 M-32.25 -400.68 C-29.25 -409, -26.4 -418.91, -23.38 -429.34" stroke="#1e1e1e" stroke-width="2" fill="none"></path></g></g><mask id="mask-URKT37AJ6esH5IVTrdW-C"><rect x="0" y="0" fill="#fff" width="804.0637296268333" height="1061.8452380952358"></rect><rect x="569.4857196614539" y="285.2023809523798" fill="#000" width="203.427734375" height="69" opacity="1"></rect></mask><g transform="translate(569.4857196614539 285.2023809523798) rotate(0 100.91433038302648 34.45891128248559)"><text x="101.7138671875" y="0" font-family="Helvetica, Segoe UI Emoji" font-size="20px" fill="#1e1e1e" text-anchor="middle" style="white-space: pre;" direction="ltr" dominant-baseline="text-before-edge">POST:</text><text x="101.7138671875" y="23" font-family="Helvetica, Segoe UI Emoji" font-size="20px" fill="#1e1e1e" text-anchor="middle" style="white-space: pre;" direction="ltr" dominant-baseline="text-before-edge">Room Finish Boundary</text><text x="101.7138671875" y="46" font-family="Helvetica, Segoe UI Emoji" font-size="20px" fill="#1e1e1e" text-anchor="middle" style="white-space: pre;" direction="ltr" dominant-baseline="text-before-edge">Obstacles as Point2D[]</text></g><g stroke-linecap="round" transform="translate(10 519.6547619047606) rotate(0 176.45833333333303 58.54166666666674)"><path d="M29.27 0 C89.56 -2.71, 149.71 -0.82, 323.65 0 M29.27 0 C143.78 -1.23, 258.9 -1.78, 323.65 0 M323.65 0 C343.61 -0.94, 352.72 11.55, 352.92 29.27 M323.65 0 C343.19 -1.88, 352.76 7.61, 352.92 29.27 M352.92 29.27 C354.26 48.94, 353.17 64.7, 352.92 87.81 M352.92 29.27 C353.6 46.84, 353.25 64.51, 352.92 87.81 M352.92 87.81 C352.55 108.67, 345.08 115.26, 323.65 117.08 M352.92 87.81 C353.94 107.06, 342.3 119.22, 323.65 117.08 M323.65 117.08 C253.34 116.79, 186.73 117.74, 29.27 117.08 M323.65 117.08 C262.74 115.92, 201.95 116.15, 29.27 117.08 M29.27 117.08 C10.3 117.65, 0.33 108.29, 0 87.81 M29.27 117.08 C8.64 116.41, -2.03 105.15, 0 87.81 M0 87.81 C2 64.98, -0.53 45.4, 0 29.27 M0 87.81 C0.07 65.53, -0.73 45.73, 0 29.27 M0 29.27 C0.57 11.48, 8.25 -1.32, 29.27 0 M0 29.27 C-2.02 9.84, 11.26 0.63, 29.27 0" stroke="#1e1e1e" stroke-width="2" fill="none"></path></g><g transform="translate(56.93684895833303 543.6964285714275) rotate(0 129.521484375 34.5)"><text x="129.521484375" y="0" font-family="Helvetica, Segoe UI Emoji" font-size="20px" fill="#1e1e1e" text-anchor="middle" style="white-space: pre;" direction="ltr" dominant-baseline="text-before-edge">Synthetic Dataset containing:</text><text x="129.521484375" y="23" font-family="Helvetica, Segoe UI Emoji" font-size="20px" fill="#1e1e1e" text-anchor="middle" style="white-space: pre;" direction="ltr" dominant-baseline="text-before-edge">- Room Finish Boundaries</text><text x="129.521484375" y="46" font-family="Helvetica, Segoe UI Emoji" font-size="20px" fill="#1e1e1e" text-anchor="middle" style="white-space: pre;" direction="ltr" dominant-baseline="text-before-edge">- Room Obstacle Boundaries</text></g><g mask="url(#mask-KoRec-zXD96nhJDqsGxKZ)" stroke-linecap="round"><g transform="translate(366.45833333333394 588.7297873653952) rotate(0 149.91071428571468 1.605231158252991)"><path d="M1.03 0.52 C50.85 0.8, 250.09 1.86, 299.88 2.21 M0.11 -0.25 C49.7 0.1, 249.15 2.58, 298.96 3.23" stroke="#1e1e1e" stroke-width="2" fill="none"></path></g><g transform="translate(366.45833333333394 588.7297873653952) rotate(0 149.91071428571468 1.605231158252991)"><path d="M270.64 13.13 C282.22 9.21, 290.46 5.21, 298.96 3.23 M270.64 13.13 C276.76 10.51, 284.94 8.41, 298.96 3.23" stroke="#1e1e1e" stroke-width="2" fill="none"></path></g><g transform="translate(366.45833333333394 588.7297873653952) rotate(0 149.91071428571468 1.605231158252991)"><path d="M270.9 -7.39 C282.48 -3.5, 290.61 0.29, 298.96 3.23 M270.9 -7.39 C277.08 -4.84, 285.19 -1.78, 298.96 3.23" stroke="#1e1e1e" stroke-width="2" fill="none"></path></g></g><mask id="mask-KoRec-zXD96nhJDqsGxKZ"><rect x="0" y="0" fill="#fff" width="766.2797619047633" height="691.9402496819012"></rect><rect x="486.3690476190486" y="578.8350185236482" fill="#000" width="60" height="23" opacity="1"></rect></mask><g transform="translate(486.3690476190486 578.8350185236482) rotate(0 30.084407925233336 11.381926965787898)"><text x="30" y="0" font-family="Helvetica, Segoe UI Emoji" font-size="20px" fill="#1e1e1e" text-anchor="middle" style="white-space: pre;" direction="ltr" dominant-baseline="text-before-edge">INPUT</text></g><g mask="url(#mask-ncAg5qMxECwcPXb2HdYmg)" stroke-linecap="round"><g transform="translate(1008.0136782560157 102.6190476190468) rotate(0 -77.15961651786165 216.06767693776374)"><path d="M-0.26 -1.06 C-26.17 70.96, -128.68 358.93, -154.43 430.96 M1.8 1 C-24.36 73.22, -129.18 360.06, -155.43 431.87" stroke="#1e1e1e" stroke-width="2" fill="none"></path></g><g transform="translate(1008.0136782560157 102.6190476190468) rotate(0 -77.15961651786165 216.06767693776374)"><path d="M-155.39 401.87 C-157.46 413.23, -157.68 424.28, -155.43 431.87 M-155.39 401.87 C-155.02 408.93, -155.64 415.23, -155.43 431.87" stroke="#1e1e1e" stroke-width="2" fill="none"></path></g><g transform="translate(1008.0136782560157 102.6190476190468) rotate(0 -77.15961651786165 216.06767693776374)"><path d="M-136.12 408.92 C-145.52 417.52, -153.15 425.86, -155.43 431.87 M-136.12 408.92 C-139.84 414.44, -144.58 419.23, -155.43 431.87" stroke="#1e1e1e" stroke-width="2" fill="none"></path></g></g><mask id="mask-ncAg5qMxECwcPXb2HdYmg"><rect x="0" y="0" fill="#fff" width="1262.332911291739" height="634.7544014945743"></rect><rect x="861.9185148631541" y="272.686724556811" fill="#000" width="137.87109375" height="92" opacity="1"></rect></mask><g transform="translate(861.9185148631541 272.686724556811) rotate(0 69.27986190984029 45.341241965507606)"><text x="68.935546875" y="0" font-family="Helvetica, Segoe UI Emoji" font-size="20px" fill="#1e1e1e" text-anchor="middle" style="white-space: pre;" direction="ltr" dominant-baseline="text-before-edge">RES:</text><text x="68.935546875" y="23" font-family="Helvetica, Segoe UI Emoji" font-size="20px" fill="#1e1e1e" text-anchor="middle" style="white-space: pre;" direction="ltr" dominant-baseline="text-before-edge">Travel Routes</text><text x="68.935546875" y="46" font-family="Helvetica, Segoe UI Emoji" font-size="20px" fill="#1e1e1e" text-anchor="middle" style="white-space: pre;" direction="ltr" dominant-baseline="text-before-edge">inside room as </text><text x="68.935546875" y="69" font-family="Helvetica, Segoe UI Emoji" font-size="20px" fill="#1e1e1e" text-anchor="middle" style="white-space: pre;" direction="ltr" dominant-baseline="text-before-edge">node-link graph</text></g><g mask="url(#mask-7Rb48f31lYu-r2u1ld650)" stroke-linecap="round"><g transform="translate(1525.708333333334 596.2610171000133) rotate(0 136.25 33.21456361179412)"><path d="M-0.12 -0.52 C45.06 10.72, 225.98 55.93, 271.57 66.9 M-1.65 1.82 C43.87 12.74, 227.99 54.32, 273.79 65.03" stroke="#1e1e1e" stroke-width="2" fill="none"></path></g><g transform="translate(1525.708333333334 596.2610171000133) rotate(0 136.25 33.21456361179412)"><path d="M244.02 68.73 C253.22 65.96, 264.93 67.82, 273.79 65.03 M244.02 68.73 C250.8 67.83, 256.22 66.92, 273.79 65.03" stroke="#1e1e1e" stroke-width="2" fill="none"></path></g><g transform="translate(1525.708333333334 596.2610171000133) rotate(0 136.25 33.21456361179412)"><path d="M248.61 48.73 C256.18 52.71, 266.34 61.32, 273.79 65.03 M248.61 48.73 C254.39 52.04, 258.84 55.31, 273.79 65.03" stroke="#1e1e1e" stroke-width="2" fill="none"></path></g></g><mask id="mask-7Rb48f31lYu-r2u1ld650"><rect x="0" y="0" fill="#fff" width="1898.208333333334" height="762.6901443236015"></rect><rect x="1592.134114583334" y="617.9755807118072" fill="#000" width="139.6484375" height="23" opacity="1"></rect></mask><g transform="translate(1592.134114583334 617.9755807118072) rotate(0 69.64562458911882 11.47727833800036)"><text x="69.82421875" y="0" font-family="Helvetica, Segoe UI Emoji" font-size="20px" fill="#1e1e1e" text-anchor="middle" style="white-space: pre;" direction="ltr" dominant-baseline="text-before-edge">USE TO TRAIN</text></g><g stroke-linecap="round" transform="translate(2496.4226190476193 149.03571428571286) rotate(0 217.1428571428571 121.33928571428578)"><path d="M32 0 C158.77 1.91, 287.22 2.01, 402.29 0 M32 0 C116.84 -2.38, 202.66 -2.05, 402.29 0 M402.29 0 C424.1 1.5, 434.52 11.03, 434.29 32 M402.29 0 C425.56 0.33, 436.55 11.81, 434.29 32 M434.29 32 C432.4 80.11, 433.89 127.52, 434.29 210.68 M434.29 32 C433.4 72.03, 433.66 110.68, 434.29 210.68 M434.29 210.68 C434.17 230.46, 424.35 242.33, 402.29 242.68 M434.29 210.68 C435.59 232.44, 424.2 244.3, 402.29 242.68 M402.29 242.68 C324.09 241.58, 245.22 241.96, 32 242.68 M402.29 242.68 C308.48 242.94, 214.7 242.09, 32 242.68 M32 242.68 C9.81 243.82, -0.59 230.92, 0 210.68 M32 242.68 C9.44 243.36, 0.43 229.86, 0 210.68 M0 210.68 C0.54 163.36, 0.81 118.58, 0 32 M0 210.68 C-0.21 157.78, -1.17 103.18, 0 32 M0 32 C0.15 11.57, 10.71 -1.82, 32 0 M0 32 C1.22 8.86, 10.68 0.83, 32 0" stroke="#1e1e1e" stroke-width="2" fill="none"></path></g><g transform="translate(2567.584030877976 189.87499999999818) rotate(0 145.9814453125 80.5)"><text x="145.9814453125" y="0" font-family="Helvetica, Segoe UI Emoji" font-size="20px" fill="#1e1e1e" text-anchor="middle" style="white-space: pre;" direction="ltr" dominant-baseline="text-before-edge">LEVEL 1 INFERENCE:</text><text x="145.9814453125" y="23" font-family="Helvetica, Segoe UI Emoji" font-size="20px" fill="#1e1e1e" text-anchor="middle" style="white-space: pre;" direction="ltr" dominant-baseline="text-before-edge"></text><text x="145.9814453125" y="46" font-family="Helvetica, Segoe UI Emoji" font-size="20px" fill="#1e1e1e" text-anchor="middle" style="white-space: pre;" direction="ltr" dominant-baseline="text-before-edge">Classify ACCEPTABLE == 0 or 1</text><text x="145.9814453125" y="69" font-family="Helvetica, Segoe UI Emoji" font-size="20px" fill="#1e1e1e" text-anchor="middle" style="white-space: pre;" direction="ltr" dominant-baseline="text-before-edge">Given:</text><text x="145.9814453125" y="92" font-family="Helvetica, Segoe UI Emoji" font-size="20px" fill="#1e1e1e" text-anchor="middle" style="white-space: pre;" direction="ltr" dominant-baseline="text-before-edge">- Room Finish Boundary</text><text x="145.9814453125" y="115" font-family="Helvetica, Segoe UI Emoji" font-size="20px" fill="#1e1e1e" text-anchor="middle" style="white-space: pre;" direction="ltr" dominant-baseline="text-before-edge">- Room Obstacles</text><text x="145.9814453125" y="138" font-family="Helvetica, Segoe UI Emoji" font-size="20px" fill="#1e1e1e" text-anchor="middle" style="white-space: pre;" direction="ltr" dominant-baseline="text-before-edge">- Extinguisher Placements</text></g><g mask="url(#mask-ftbUlP5VRFsZ4ykDMlaCx)" stroke-linecap="round"><g transform="translate(1987.8478503422866 621.0714285714275) rotate(0 249.28738435266587 -204.831871215114)"><path d="M-0.18 0.83 C83.13 -67.53, 415.71 -340.39, 498.81 -408.99 M-1.73 0.21 C81.53 -67.98, 414.76 -342.38, 497.98 -410.75" stroke="#1e1e1e" stroke-width="2" fill="none"></path></g><g transform="translate(1987.8478503422866 621.0714285714275) rotate(0 249.28738435266587 -204.831871215114)"><path d="M482.73 -384.92 C487.14 -390.06, 490.17 -396.23, 497.98 -410.75 M482.73 -384.92 C484.9 -389.37, 488.69 -395.07, 497.98 -410.75" stroke="#1e1e1e" stroke-width="2" fill="none"></path></g><g transform="translate(1987.8478503422866 621.0714285714275) rotate(0 249.28738435266587 -204.831871215114)"><path d="M469.69 -400.77 C477.05 -402.48, 482.88 -405.25, 497.98 -410.75 M469.69 -400.77 C474.6 -401.85, 481.11 -404.24, 497.98 -410.75" stroke="#1e1e1e" stroke-width="2" fill="none"></path></g></g><mask id="mask-ftbUlP5VRFsZ4ykDMlaCx"><rect x="0" y="0" fill="#fff" width="2586.4226190476184" height="1130.7351710016555"></rect><rect x="2167.0864065699525" y="404.7395573563135" fill="#000" width="140.09765625" height="23" opacity="1"></rect></mask><g transform="translate(2167.0864065699525 404.7395573563135) rotate(0 69.30170676612306 11.367453090166464)"><text x="70.048828125" y="0" font-family="Helvetica, Segoe UI Emoji" font-size="20px" fill="#1e1e1e" text-anchor="middle" style="white-space: pre;" direction="ltr" dominant-baseline="text-before-edge">/api/v1/evaluate</text></g><g mask="url(#mask-5XTL494QIHk6Lottt1fnL)" stroke-linecap="round"><g transform="translate(2028.476190476189 652.713178437396) rotate(0 219.50892857142935 -56.607701732272744)"><path d="M0.89 0.09 C74.17 -18.83, 365.81 -93.94, 438.94 -112.89 M-0.1 -0.91 C73.08 -20.26, 364.72 -96.24, 437.95 -114.84" stroke="#1e1e1e" stroke-width="2" fill="none"></path></g><g transform="translate(2028.476190476189 652.713178437396) rotate(0 219.50892857142935 -56.607701732272744)"><path d="M413.21 -97.87 C419.13 -102.21, 425.39 -105.02, 437.95 -114.84 M413.21 -97.87 C418.97 -101.52, 427.08 -106.95, 437.95 -114.84" stroke="#1e1e1e" stroke-width="2" fill="none"></path></g><g transform="translate(2028.476190476189 652.713178437396) rotate(0 219.50892857142935 -56.607701732272744)"><path d="M408.09 -117.74 C415.32 -117.41, 422.8 -115.51, 437.95 -114.84 M408.09 -117.74 C415.01 -116.1, 424.49 -116.26, 437.95 -114.84" stroke="#1e1e1e" stroke-width="2" fill="none"></path></g></g><mask id="mask-5XTL494QIHk6Lottt1fnL"><rect x="0" y="0" fill="#fff" width="2567.4940476190477" height="865.9285819019415"></rect><rect x="2176.2663690476184" y="584.6054767051232" fill="#000" width="143.4375" height="23" opacity="1"></rect></mask><g transform="translate(2176.2663690476184 584.6054767051232) rotate(0 71.62866623380205 10.730399606889023)"><text x="71.71875" y="0" font-family="Helvetica, Segoe UI Emoji" font-size="20px" fill="#1e1e1e" text-anchor="middle" style="white-space: pre;" direction="ltr" dominant-baseline="text-before-edge">/api/v1/generate</text></g><g stroke-linecap="round" transform="translate(2488.9226190476197 424.64880952381054) rotate(0 223.57142857142844 154.28571428571422)"><path d="M32 0 C142.08 -2.39, 252.96 -0.91, 415.14 0 M32 0 C123.45 1.43, 214.19 1.41, 415.14 0 M415.14 0 C436.92 -1.5, 446.52 11.5, 447.14 32 M415.14 0 C437.48 -1.59, 445.57 12.34, 447.14 32 M447.14 32 C447.18 118.18, 448.71 206.61, 447.14 276.57 M447.14 32 C447.89 127.85, 448.39 221.79, 447.14 276.57 M447.14 276.57 C448.26 299.03, 437.94 308.97, 415.14 308.57 M447.14 276.57 C448.02 298.46, 437.67 310.57, 415.14 308.57 M415.14 308.57 C311.28 306.42, 207.79 306.4, 32 308.57 M415.14 308.57 C275.94 307.21, 136.37 308.09, 32 308.57 M32 308.57 C11.09 308.77, 1.47 298.48, 0 276.57 M32 308.57 C8.61 306.8, 1.27 300.13, 0 276.57 M0 276.57 C0.06 179.91, -0.37 84.91, 0 32 M0 276.57 C-0.09 209.76, -1.06 143.51, 0 32 M0 32 C1.28 10.89, 10.52 0.25, 32 0 M0 32 C2.2 8.5, 11.16 0.68, 32 0" stroke="#1e1e1e" stroke-width="2" fill="none"></path></g><g transform="translate(2502.376860119048 463.93452380952476) rotate(0 210.1171875 115)"><text x="210.1171875" y="0" font-family="Helvetica, Segoe UI Emoji" font-size="20px" fill="#1e1e1e" text-anchor="middle" style="white-space: pre;" direction="ltr" dominant-baseline="text-before-edge">LEVEL 2 INFERENCE:</text><text x="210.1171875" y="23" font-family="Helvetica, Segoe UI Emoji" font-size="20px" fill="#1e1e1e" text-anchor="middle" style="white-space: pre;" direction="ltr" dominant-baseline="text-before-edge"></text><text x="210.1171875" y="46" font-family="Helvetica, Segoe UI Emoji" font-size="20px" fill="#1e1e1e" text-anchor="middle" style="white-space: pre;" direction="ltr" dominant-baseline="text-before-edge">Generate Point2D[] of extinguisher placements </text><text x="210.1171875" y="69" font-family="Helvetica, Segoe UI Emoji" font-size="20px" fill="#1e1e1e" text-anchor="middle" style="white-space: pre;" direction="ltr" dominant-baseline="text-before-edge"></text><text x="210.1171875" y="92" font-family="Helvetica, Segoe UI Emoji" font-size="20px" fill="#1e1e1e" text-anchor="middle" style="white-space: pre;" direction="ltr" dominant-baseline="text-before-edge">Given:</text><text x="210.1171875" y="115" font-family="Helvetica, Segoe UI Emoji" font-size="20px" fill="#1e1e1e" text-anchor="middle" style="white-space: pre;" direction="ltr" dominant-baseline="text-before-edge">- Room Finish Boundary</text><text x="210.1171875" y="138" font-family="Helvetica, Segoe UI Emoji" font-size="20px" fill="#1e1e1e" text-anchor="middle" style="white-space: pre;" direction="ltr" dominant-baseline="text-before-edge">- Room Obstacles</text><text x="210.1171875" y="161" font-family="Helvetica, Segoe UI Emoji" font-size="20px" fill="#1e1e1e" text-anchor="middle" style="white-space: pre;" direction="ltr" dominant-baseline="text-before-edge"></text><text x="210.1171875" y="184" font-family="Helvetica, Segoe UI Emoji" font-size="20px" fill="#1e1e1e" text-anchor="middle" style="white-space: pre;" direction="ltr" dominant-baseline="text-before-edge">Where:</text><text x="210.1171875" y="207" font-family="Helvetica, Segoe UI Emoji" font-size="20px" fill="#1e1e1e" text-anchor="middle" style="white-space: pre;" direction="ltr" dominant-baseline="text-before-edge">- ACCEPTABLE == 1</text></g><g mask="url(#mask-sEzP4ugC8XNZYtfixKWl1)" stroke-linecap="round"><g transform="translate(1162.7234462635934 1100.4624299931415) rotate(0 319.64973996001754 -198.81244618785172)"><path d="M0.26 1.08 C106.78 -64.98, 533.98 -330.21, 640.3 -396.55 M-1.06 0.6 C105.29 -65.75, 532.95 -331.51, 639.88 -398.11" stroke="#1e1e1e" stroke-width="2" fill="none"></path></g><g transform="translate(1162.7234462635934 1100.4624299931415) rotate(0 319.64973996001754 -198.81244618785172)"><path d="M621.36 -374.51 C630.54 -382.24, 637.87 -395.13, 639.88 -398.11 M621.36 -374.51 C628.9 -383.49, 634.84 -391.85, 639.88 -398.11" stroke="#1e1e1e" stroke-width="2" fill="none"></path></g><g transform="translate(1162.7234462635934 1100.4624299931415) rotate(0 319.64973996001754 -198.81244618785172)"><path d="M610.52 -391.93 C623.97 -392.78, 635.59 -398.76, 639.88 -398.11 M610.52 -391.93 C621.79 -394.76, 631.56 -396.95, 639.88 -398.11" stroke="#1e1e1e" stroke-width="2" fill="none"></path></g></g><mask id="mask-sEzP4ugC8XNZYtfixKWl1"><rect x="0" y="0" fill="#fff" width="1902.0229261836284" height="1598.087322368845"></rect><rect x="1317.299944036111" y="867.1499838052896" fill="#000" width="330.146484375" height="69" opacity="1"></rect></mask><g transform="translate(1317.299944036111 867.1499838052896) rotate(0 165.04151998319662 34.79715194231858)"><text x="165.0732421875" y="0" font-family="Helvetica, Segoe UI Emoji" font-size="20px" fill="#1e1e1e" text-anchor="middle" style="white-space: pre;" direction="ltr" dominant-baseline="text-before-edge">POST:</text><text x="165.0732421875" y="23" font-family="Helvetica, Segoe UI Emoji" font-size="20px" fill="#1e1e1e" text-anchor="middle" style="white-space: pre;" direction="ltr" dominant-baseline="text-before-edge">- Room Finish Boundary as Point2D[]</text><text x="165.0732421875" y="46" font-family="Helvetica, Segoe UI Emoji" font-size="20px" fill="#1e1e1e" text-anchor="middle" style="white-space: pre;" direction="ltr" dominant-baseline="text-before-edge">- Room Obstacles as Point2D[]</text></g><g mask="url(#mask-FI3-zY_nHT8ISCMt-hiX-)" stroke-linecap="round"><g transform="translate(1982.73058989935 721.8611111111086) rotate(0 100.93343460399797 125.30704294031239)"><path d="M-0.53 0.68 C33.36 42.7, 168.68 209.32, 202.57 251 M1.4 -0.02 C35.26 41.75, 168.47 207.05, 201.99 249.08" stroke="#1e1e1e" stroke-width="2" fill="none"></path></g><g transform="translate(1982.73058989935 721.8611111111086) rotate(0 100.93343460399797 125.30704294031239)"><path d="M176.35 233.51 C183.35 238.46, 188.9 242.5, 201.99 249.08 M176.35 233.51 C185.04 237.57, 193.07 243.97, 201.99 249.08" stroke="#1e1e1e" stroke-width="2" fill="none"></path></g><g transform="translate(1982.73058989935 721.8611111111086) rotate(0 100.93343460399797 125.30704294031239)"><path d="M192.35 220.67 C195.46 228.57, 197.25 235.63, 201.99 249.08 M192.35 220.67 C195.98 228.73, 199.02 239.15, 201.99 249.08" stroke="#1e1e1e" stroke-width="2" fill="none"></path></g></g><mask id="mask-FI3-zY_nHT8ISCMt-hiX-"><rect x="0" y="0" fill="#fff" width="2284.597459107346" height="1072.4751969917334"></rect><rect x="2042.5312120033477" y="824.168154051421" fill="#000" width="82.265625" height="46" opacity="1"></rect></mask><g transform="translate(2042.5312120033477 824.168154051421) rotate(0 41.22075205631586 23.18473550698718)"><text x="41.1328125" y="0" font-family="Helvetica, Segoe UI Emoji" font-size="20px" fill="#1e1e1e" text-anchor="middle" style="white-space: pre;" direction="ltr" dominant-baseline="text-before-edge">POST:</text><text x="41.1328125" y="23" font-family="Helvetica, Segoe UI Emoji" font-size="20px" fill="#1e1e1e" text-anchor="middle" style="white-space: pre;" direction="ltr" dominant-baseline="text-before-edge">Point2D[]</text></g><g mask="url(#mask-OMmHglnvCIpaZvfYUOPzL)" stroke-linecap="round"><g transform="translate(2480.1296122545705 936.2261904761881) rotate(0 -221.26718707966688 -127.64561532453217)"><path d="M0.09 -0.05 C-73.79 -42.63, -368.54 -213.46, -442.22 -256.07 M-1.32 -1.13 C-75.43 -43.51, -369.48 -212.69, -443.01 -254.94" stroke="#1e1e1e" stroke-width="2" fill="none"></path></g><g transform="translate(2480.1296122545705 936.2261904761881) rotate(0 -221.26718707966688 -127.64561532453217)"><path d="M-413.45 -249.78 C-425.04 -251.25, -437.76 -252.88, -443.01 -254.94 M-413.45 -249.78 C-421 -252.41, -428.95 -251.84, -443.01 -254.94" stroke="#1e1e1e" stroke-width="2" fill="none"></path></g><g transform="translate(2480.1296122545705 936.2261904761881) rotate(0 -221.26718707966688 -127.64561532453217)"><path d="M-423.68 -231.99 C-431.19 -240.4, -439.93 -248.96, -443.01 -254.94 M-423.68 -231.99 C-428.46 -239.23, -433.7 -243.37, -443.01 -254.94" stroke="#1e1e1e" stroke-width="2" fill="none"></path></g></g><mask id="mask-OMmHglnvCIpaZvfYUOPzL"><rect x="0" y="0" fill="#fff" width="3022.6639864139042" height="1291.5174211252524"></rect><rect x="2176.6016829874034" y="785.5805751516559" fill="#000" width="164.521484375" height="46" opacity="1"></rect></mask><g transform="translate(2176.6016829874034 785.5805751516559) rotate(0 82.07002894991092 22.585971401259258)"><text x="82.2607421875" y="0" font-family="Helvetica, Segoe UI Emoji" font-size="20px" fill="#1e1e1e" text-anchor="middle" style="white-space: pre;" direction="ltr" dominant-baseline="text-before-edge">RES:</text><text x="82.2607421875" y="23" font-family="Helvetica, Segoe UI Emoji" font-size="20px" fill="#1e1e1e" text-anchor="middle" style="white-space: pre;" direction="ltr" dominant-baseline="text-before-edge">SVGPath as string</text></g><g mask="url(#mask-VFyy6LVRH1CVIfBhhnQbX)" stroke-linecap="round"><g transform="translate(1918.9272264057136 721.7023809523798) rotate(0 -68.03272800721334 191.44345238095093)"><path d="M-0.22 0.78 C-22.83 64.62, -114.03 319.46, -136.72 382.99 M-1.79 0.14 C-23.91 64.2, -111.78 320.81, -134.36 384.58" stroke="#1e1e1e" stroke-width="2" fill="none"></path></g><g transform="translate(1918.9272264057136 721.7023809523798) rotate(0 -68.03272800721334 191.44345238095093)"><path d="M-134.8 354.58 C-133.42 359.81, -134.46 366.74, -134.36 384.58 M-134.8 354.58 C-135.31 361.99, -134.97 366.96, -134.36 384.58" stroke="#1e1e1e" stroke-width="2" fill="none"></path></g><g transform="translate(1918.9272264057136 721.7023809523798) rotate(0 -68.03272800721334 191.44345238095093)"><path d="M-115.41 361.32 C-118.12 365.09, -123.24 370.6, -134.36 384.58 M-115.41 361.32 C-120.28 367.12, -124.24 370.6, -134.36 384.58" stroke="#1e1e1e" stroke-width="2" fill="none"></path></g></g><mask id="mask-VFyy6LVRH1CVIfBhhnQbX"><rect x="0" y="0" fill="#fff" width="2154.99268242014" height="1204.5892857142817"></rect><rect x="1741.7734046485002" y="809.6458333333308" fill="#000" width="218.2421875" height="207" opacity="1"></rect></mask><g transform="translate(1741.7734046485002 809.6458333333308) rotate(0 108.68277756758039 104.41623724451279)"><text x="109.12109375" y="0" font-family="Helvetica, Segoe UI Emoji" font-size="20px" fill="#1e1e1e" text-anchor="middle" style="white-space: pre;" direction="ltr" dominant-baseline="text-before-edge">RES:</text><text x="109.12109375" y="23" font-family="Helvetica, Segoe UI Emoji" font-size="20px" fill="#1e1e1e" text-anchor="middle" style="white-space: pre;" direction="ltr" dominant-baseline="text-before-edge">- ACCEPTABLE = 0 or 1</text><text x="109.12109375" y="46" font-family="Helvetica, Segoe UI Emoji" font-size="20px" fill="#1e1e1e" text-anchor="middle" style="white-space: pre;" direction="ltr" dominant-baseline="text-before-edge">- Extinguisher position </text><text x="109.12109375" y="69" font-family="Helvetica, Segoe UI Emoji" font-size="20px" fill="#1e1e1e" text-anchor="middle" style="white-space: pre;" direction="ltr" dominant-baseline="text-before-edge">options as Point2D[]</text><text x="109.12109375" y="92" font-family="Helvetica, Segoe UI Emoji" font-size="20px" fill="#1e1e1e" text-anchor="middle" style="white-space: pre;" direction="ltr" dominant-baseline="text-before-edge">- Most remote point as </text><text x="109.12109375" y="115" font-family="Helvetica, Segoe UI Emoji" font-size="20px" fill="#1e1e1e" text-anchor="middle" style="white-space: pre;" direction="ltr" dominant-baseline="text-before-edge">Point2D</text><text x="109.12109375" y="138" font-family="Helvetica, Segoe UI Emoji" font-size="20px" fill="#1e1e1e" text-anchor="middle" style="white-space: pre;" direction="ltr" dominant-baseline="text-before-edge">- Travel Routes taken to </text><text x="109.12109375" y="161" font-family="Helvetica, Segoe UI Emoji" font-size="20px" fill="#1e1e1e" text-anchor="middle" style="white-space: pre;" direction="ltr" dominant-baseline="text-before-edge">reach Extinguishers (for </text><text x="109.12109375" y="184" font-family="Helvetica, Segoe UI Emoji" font-size="20px" fill="#1e1e1e" text-anchor="middle" style="white-space: pre;" direction="ltr" dominant-baseline="text-before-edge">explainability)</text></g><g mask="url(#mask-U4M6R8G4hl0SyUpZjTxuD)" stroke-linecap="round"><g transform="translate(1809.2490618044258 620.988715204744) rotate(0 -132.68870801656476 -263.4884052214188)"><path d="M0.07 0.73 C-43.82 -87.14, -220.01 -439.83, -264.26 -527.69 M-1.35 0.07 C-45.23 -87.62, -220.47 -438.43, -264.62 -526.52" stroke="#1e1e1e" stroke-width="2" fill="none"></path></g><g transform="translate(1809.2490618044258 620.988715204744) rotate(0 -132.68870801656476 -263.4884052214188)"><path d="M-242.83 -505.9 C-246.46 -508.68, -253.79 -515.31, -264.62 -526.52 M-242.83 -505.9 C-250.77 -512.78, -258.1 -520.88, -264.62 -526.52" stroke="#1e1e1e" stroke-width="2" fill="none"></path></g><g transform="translate(1809.2490618044258 620.988715204744) rotate(0 -132.68870801656476 -263.4884052214188)"><path d="M-261.18 -496.72 C-260.63 -501.59, -263.81 -510.29, -264.62 -526.52 M-261.18 -496.72 C-262.64 -506.91, -263.58 -518.21, -264.62 -526.52" stroke="#1e1e1e" stroke-width="2" fill="none"></path></g></g><mask id="mask-U4M6R8G4hl0SyUpZjTxuD"><rect x="0" y="0" fill="#fff" width="2174.6264778375553" height="1247.9655256475817"></rect><rect x="1574.8464866003615" y="323.0003099833252" fill="#000" width="203.427734375" height="69" opacity="1"></rect></mask><g transform="translate(1574.8464866003615 323.0003099833252) rotate(0 102.129561402136 34.51266450695698)"><text x="101.7138671875" y="0" font-family="Helvetica, Segoe UI Emoji" font-size="20px" fill="#1e1e1e" text-anchor="middle" style="white-space: pre;" direction="ltr" dominant-baseline="text-before-edge">POST:</text><text x="101.7138671875" y="23" font-family="Helvetica, Segoe UI Emoji" font-size="20px" fill="#1e1e1e" text-anchor="middle" style="white-space: pre;" direction="ltr" dominant-baseline="text-before-edge">Room Finish Boundary</text><text x="101.7138671875" y="46" font-family="Helvetica, Segoe UI Emoji" font-size="20px" fill="#1e1e1e" text-anchor="middle" style="white-space: pre;" direction="ltr" dominant-baseline="text-before-edge">Obstacles as Point2D[]</text></g><g mask="url(#mask-3Ig92wYkmcYbWq1EwyidI)" stroke-linecap="round"><g transform="translate(1970.428014117921 101.07123982688609) rotate(0 -35.937171674394904 260.35339122347796)"><path d="M0.36 0.59 C-11.55 87.29, -60.32 433.73, -72.26 520.29 M-0.91 -0.15 C-12.94 86.72, -61.61 434.78, -73.4 521.61" stroke="#1e1e1e" stroke-width="2" fill="none"></path></g><g transform="translate(1970.428014117921 101.07123982688609) rotate(0 -35.937171674394904 260.35339122347796)"><path d="M-79.71 492.28 C-77.25 498.47, -77.44 507, -73.4 521.61 M-79.71 492.28 C-78.46 498.75, -76.98 506.28, -73.4 521.61" stroke="#1e1e1e" stroke-width="2" fill="none"></path></g><g transform="translate(1970.428014117921 101.07123982688609) rotate(0 -35.937171674394904 260.35339122347796)"><path d="M-59.38 495.09 C-61.67 500.69, -66.61 508.56, -73.4 521.61 M-59.38 495.09 C-62.95 500.88, -66.27 507.75, -73.4 521.61" stroke="#1e1e1e" stroke-width="2" fill="none"></path></g></g><mask id="mask-3Ig92wYkmcYbWq1EwyidI"><rect x="0" y="0" fill="#fff" width="2142.302357466711" height="721.778022273842"></rect><rect x="1826.1021705685262" y="315.42463105036404" fill="#000" width="216.77734375" height="92" opacity="1"></rect></mask><g transform="translate(1826.1021705685262 315.42463105036404) rotate(0 107.80512203955095 46.37723806520921)"><text x="108.388671875" y="0" font-family="Helvetica, Segoe UI Emoji" font-size="20px" fill="#1e1e1e" text-anchor="middle" style="white-space: pre;" direction="ltr" dominant-baseline="text-before-edge">RES:</text><text x="108.388671875" y="23" font-family="Helvetica, Segoe UI Emoji" font-size="20px" fill="#1e1e1e" text-anchor="middle" style="white-space: pre;" direction="ltr" dominant-baseline="text-before-edge">Travel Routes</text><text x="108.388671875" y="46" font-family="Helvetica, Segoe UI Emoji" font-size="20px" fill="#1e1e1e" text-anchor="middle" style="white-space: pre;" direction="ltr" dominant-baseline="text-before-edge">inside room as node-link</text><text x="108.388671875" y="69" font-family="Helvetica, Segoe UI Emoji" font-size="20px" fill="#1e1e1e" text-anchor="middle" style="white-space: pre;" direction="ltr" dominant-baseline="text-before-edge">graph</text></g></svg>