<svg version="1.1" xmlns="http://www.w3.org/2000/svg" viewBox="0 0 2780.7083333333335 858.291666666667" width="2780.7083333333335" height="858.291666666667" filter="invert(93%) hue-rotate(180deg)">
  <!-- svg-source:excalidraw -->
  
  <defs>
    <style class="style-fonts">
      @font-face {
        font-family: "Virgil";
        src: url("https://excalidraw.com/Virgil.woff2");
      }
      @font-face {
        font-family: "Cascadia";
        src: url("https://excalidraw.com/Cascadia.woff2");
      }
      @font-face {
        font-family: "Assistant";
        src: url("https://excalidraw.com/Assistant-Regular.woff2");
      }
    </style>
    
  </defs>
  <g stroke-linecap="round" transform="translate(431.0416666666679 10) rotate(0 727.9166666666663 39.79166666666697)"><path d="M19.9 0 C563.33 4.79, 1105.91 4.95, 1435.94 0 M19.9 0 C370.05 2.82, 720.56 2.66, 1435.94 0 M1435.94 0 C1450.73 -1.91, 1455.48 8.23, 1455.83 19.9 M1435.94 0 C1447.44 0.06, 1455.08 6.85, 1455.83 19.9 M1455.83 19.9 C1455.16 29.36, 1455.82 38.08, 1455.83 59.69 M1455.83 19.9 C1455.51 30.27, 1456.83 41.59, 1455.83 59.69 M1455.83 59.69 C1455.85 71.3, 1449.36 79.41, 1435.94 79.58 M1455.83 59.69 C1454.58 74.91, 1447.65 77.49, 1435.94 79.58 M1435.94 79.58 C1021.87 74.45, 607.32 74.56, 19.9 79.58 M1435.94 79.58 C977.72 77.24, 519.19 77.36, 19.9 79.58 M19.9 79.58 C8.35 78.12, 0.56 74.71, 0 59.69 M19.9 79.58 C6.93 79.56, 1.42 75.13, 0 59.69 M0 59.69 C0.38 44.01, 0.45 33.1, 0 19.9 M0 59.69 C0.09 46.45, -0.41 31.74, 0 19.9 M0 19.9 C1.98 5.42, 5.61 1.24, 19.9 0 M0 19.9 C-1.79 6.02, 6.39 -0.44, 19.9 0" stroke="#e03131" stroke-width="2" fill="none"></path></g><g transform="translate(1118.943684895834 38.29166666666697) rotate(0 40.0146484375 11.5)"><text x="40.0146484375" y="0" font-family="Helvetica, Segoe UI Emoji" font-size="20px" fill="#e03131" text-anchor="middle" style="white-space: pre;" direction="ltr" dominant-baseline="text-before-edge">fire-route</text></g><g stroke-linecap="round" transform="translate(590.0297619047624 386.04166666666606) rotate(0 107.08333333333303 39.79166666666674)"><path d="M19.9 0 C58.57 -3.2, 101.12 0.55, 194.27 0 M19.9 0 C73.63 -1.46, 125.83 -2.5, 194.27 0 M194.27 0 C209.31 1.84, 214.68 5.8, 214.17 19.9 M194.27 0 C207.46 0.44, 214.5 6.44, 214.17 19.9 M214.17 19.9 C212.78 30.43, 213.95 41.58, 214.17 59.69 M214.17 19.9 C214.77 33.74, 214.59 47.31, 214.17 59.69 M214.17 59.69 C213.27 74.26, 205.93 81.29, 194.27 79.58 M214.17 59.69 C215.6 75.23, 209.76 78.37, 194.27 79.58 M194.27 79.58 C142.64 80.1, 94.73 79.78, 19.9 79.58 M194.27 79.58 C152.48 78.63, 110.32 78.74, 19.9 79.58 M19.9 79.58 C8.41 78.69, -0.04 72.16, 0 59.69 M19.9 79.58 C6.54 81.1, -1.2 72.63, 0 59.69 M0 59.69 C0.89 49.85, -1.17 42.27, 0 19.9 M0 59.69 C0.39 43.34, -0.03 27.81, 0 19.9 M0 19.9 C0.37 6.3, 6.19 0.8, 19.9 0 M0 19.9 C1.24 8.06, 4.65 -0.3, 19.9 0" stroke="#e03131" stroke-width="2" fill="none"></path></g><g transform="translate(665.9900483630954 414.33333333333303) rotate(0 31.123046875 11.5)"><text x="31.123046875" y="0" font-family="Helvetica, Segoe UI Emoji" font-size="20px" fill="#e03131" text-anchor="middle" style="white-space: pre;" direction="ltr" dominant-baseline="text-before-edge">fire-opt</text></g><g stroke-linecap="round" transform="translate(1322.7956349206343 762.7083333333335) rotate(0 414.63888888888914 42.79166666666674)"><path d="M21.4 0 C325.63 3.34, 628.95 3.39, 807.88 0 M21.4 0 C270.45 1.94, 520.04 2.45, 807.88 0 M807.88 0 C821.21 -0.18, 829.14 7.05, 829.28 21.4 M807.88 0 C820.69 1.51, 827.12 5.2, 829.28 21.4 M829.28 21.4 C829.53 32.76, 828.68 44.95, 829.28 64.19 M829.28 21.4 C829.77 38.09, 830.25 53.56, 829.28 64.19 M829.28 64.19 C829.94 79.97, 823.89 86.37, 807.88 85.58 M829.28 64.19 C830.28 78.85, 821.58 84.23, 807.88 85.58 M807.88 85.58 C520.11 83.56, 232.52 83.39, 21.4 85.58 M807.88 85.58 C501.41 88.14, 194.4 87.89, 21.4 85.58 M21.4 85.58 C7.77 84.85, 0.72 78.89, 0 64.19 M21.4 85.58 C8.15 83.97, -1.61 76.97, 0 64.19 M0 64.19 C0.77 56.01, 1.88 47.56, 0 21.4 M0 64.19 C-0.54 55.07, 1.14 44.96, 0 21.4 M0 21.4 C-1.3 7.35, 8.21 0.03, 21.4 0 M0 21.4 C0.03 6.98, 7.01 -0.97, 21.4 0" stroke="#e03131" stroke-width="2" fill="none"></path></g><g transform="translate(1709.104445684523 794.0000000000005) rotate(0 28.330078125 11.5)"><text x="28.330078125" y="0" font-family="Helvetica, Segoe UI Emoji" font-size="20px" fill="#e03131" text-anchor="middle" style="white-space: pre;" direction="ltr" dominant-baseline="text-before-edge">fire-rvt</text></g><g stroke-linecap="round" transform="translate(1621.041666666667 367.1130952380945) rotate(0 107.08333333333303 39.79166666666674)"><path d="M19.9 0 C73.95 2.53, 133.36 0.9, 194.27 0 M19.9 0 C59.38 0.41, 99.2 -0.37, 194.27 0 M194.27 0 C206.18 -0.21, 213.8 6.17, 214.17 19.9 M194.27 0 C208.95 -0.84, 215.92 7.48, 214.17 19.9 M214.17 19.9 C211.97 34.67, 213.52 47.23, 214.17 59.69 M214.17 19.9 C214.86 34.14, 213.62 48.24, 214.17 59.69 M214.17 59.69 C214.86 71.56, 208.54 78.6, 194.27 79.58 M214.17 59.69 C212.08 71.96, 207.32 81.4, 194.27 79.58 M194.27 79.58 C135.12 79.92, 72.15 79.25, 19.9 79.58 M194.27 79.58 C125.83 77.54, 57.21 77.9, 19.9 79.58 M19.9 79.58 C7.83 78.53, -1.11 72.71, 0 59.69 M19.9 79.58 C7.35 81.73, -1.86 73.92, 0 59.69 M0 59.69 C1.99 49.54, 0.98 40.88, 0 19.9 M0 59.69 C0.45 43.58, -0.79 28.52, 0 19.9 M0 19.9 C-0.61 5.85, 6.7 -1.8, 19.9 0 M0 19.9 C1.36 7.37, 6.69 1.26, 19.9 0" stroke="#e03131" stroke-width="2" fill="none"></path></g><g transform="translate(1691.4501953125 395.4047619047615) rotate(0 36.6748046875 11.5)"><text x="36.6748046875" y="0" font-family="Helvetica, Segoe UI Emoji" font-size="20px" fill="#e03131" text-anchor="middle" style="white-space: pre;" direction="ltr" dominant-baseline="text-before-edge">fire-infer</text></g><g stroke-linecap="round" transform="translate(998.125 290.8630952380945) rotate(0 176.45833333333303 115.41666666666674)"><path d="M32 0 C146.81 0.33, 259.3 -0.86, 320.92 0 M32 0 C91.76 1.09, 151.41 0.89, 320.92 0 M320.92 0 C342.83 -1.88, 351.88 10.75, 352.92 32 M320.92 0 C341.41 1.92, 354.96 11.9, 352.92 32 M352.92 32 C351.67 66.3, 353.61 101.89, 352.92 198.83 M352.92 32 C353.34 73.16, 353.9 116.44, 352.92 198.83 M352.92 198.83 C352.45 220.36, 340.85 230.76, 320.92 230.83 M352.92 198.83 C351.74 218.64, 342.5 231.43, 320.92 230.83 M320.92 230.83 C211.4 231.58, 104.56 231.35, 32 230.83 M320.92 230.83 C237.88 230.95, 155.2 231.03, 32 230.83 M32 230.83 C8.92 229.85, 0.78 219.05, 0 198.83 M32 230.83 C10.71 229.5, -1.32 222.28, 0 198.83 M0 198.83 C0.51 130.99, 2.56 67.91, 0 32 M0 198.83 C1.88 143.14, 0.78 88.79, 0 32 M0 32 C1.66 12.35, 10.54 0.49, 32 0 M0 32 C1.03 8.98, 11.74 0.6, 32 0" stroke="#1971c2" stroke-width="2" fill="none"></path></g><g transform="translate(1031.180013020833 337.2797619047615) rotate(0 143.4033203125 69)"><text x="143.4033203125" y="0" font-family="Helvetica, Segoe UI Emoji" font-size="20px" fill="#1971c2" text-anchor="middle" style="white-space: pre;" direction="ltr" dominant-baseline="text-before-edge">Synthetic Dataset containing:</text><text x="143.4033203125" y="23" font-family="Helvetica, Segoe UI Emoji" font-size="20px" fill="#1971c2" text-anchor="middle" style="white-space: pre;" direction="ltr" dominant-baseline="text-before-edge">- Room Finish Boundary</text><text x="143.4033203125" y="46" font-family="Helvetica, Segoe UI Emoji" font-size="20px" fill="#1971c2" text-anchor="middle" style="white-space: pre;" direction="ltr" dominant-baseline="text-before-edge">- Room Obstacles </text><text x="143.4033203125" y="69" font-family="Helvetica, Segoe UI Emoji" font-size="20px" fill="#1971c2" text-anchor="middle" style="white-space: pre;" direction="ltr" dominant-baseline="text-before-edge">- Good Extinguisher Placements</text><text x="143.4033203125" y="92" font-family="Helvetica, Segoe UI Emoji" font-size="20px" fill="#1971c2" text-anchor="middle" style="white-space: pre;" direction="ltr" dominant-baseline="text-before-edge">- Bad Extinguisher Placements</text><text x="143.4033203125" y="115" font-family="Helvetica, Segoe UI Emoji" font-size="20px" fill="#1971c2" text-anchor="middle" style="white-space: pre;" direction="ltr" dominant-baseline="text-before-edge">- Travel routes to extinguishers</text></g><g mask="url(#mask-9GCCj02yUzWtKYVZCJGXp)" stroke-linecap="round"><g transform="translate(807.1130952380963 429.2972079370743) rotate(0 93.42261904761881 -0.9722718431642079)"><path d="M-0.67 0.55 C30.42 0.09, 155.14 -2.28, 186.2 -2.74 M1.18 -0.21 C32.69 -0.54, 157.44 -1.48, 188.57 -1.63" stroke="#1e1e1e" stroke-width="2" fill="none"></path></g><g transform="translate(807.1130952380963 429.2972079370743) rotate(0 93.42261904761881 -0.9722718431642079)"><path d="M160.44 8.81 C169 5.05, 174.4 1.32, 188.57 -1.63 M160.44 8.81 C168.27 6.91, 176.15 2.91, 188.57 -1.63" stroke="#1e1e1e" stroke-width="2" fill="none"></path></g><g transform="translate(807.1130952380963 429.2972079370743) rotate(0 93.42261904761881 -0.9722718431642079)"><path d="M160.31 -11.71 C168.92 -9.89, 174.35 -8.05, 188.57 -1.63 M160.31 -11.71 C168.29 -7.92, 176.21 -6.24, 188.57 -1.63" stroke="#1e1e1e" stroke-width="2" fill="none"></path></g></g><mask id="mask-9GCCj02yUzWtKYVZCJGXp"><rect x="0" y="0" fill="#fff" width="1093.958333333334" height="531.2417516234027"></rect><rect x="859.4273158482156" y="416.82493609390986" fill="#000" width="82.216796875" height="23" opacity="1"></rect></mask><g transform="translate(859.4273158482156 416.82493609390986) rotate(0 41.634340616389636 11.375906499102939)"><text x="41.1083984375" y="0" font-family="Helvetica, Segoe UI Emoji" font-size="20px" fill="#1e1e1e" text-anchor="middle" style="white-space: pre;" direction="ltr" dominant-baseline="text-before-edge">OUTPUT</text></g><g mask="url(#mask-URKT37AJ6esH5IVTrdW-C)" stroke-linecap="round"><g transform="translate(584.3428422876168 373.2943526471331) rotate(0 -31.00511199768107 -133.81979537118582)"><path d="M-0.13 1.16 C-10.53 -43.19, -52.14 -222.27, -62.35 -267.06 M-1.66 0.73 C-12.25 -43.89, -53.45 -224.39, -63.48 -268.89" stroke="#1e1e1e" stroke-width="2" fill="none"></path></g><g transform="translate(584.3428422876168 373.2943526471331) rotate(0 -31.00511199768107 -133.81979537118582)"><path d="M-47.23 -243.67 C-50.03 -251.92, -55.95 -258.02, -63.48 -268.89 M-47.23 -243.67 C-51.85 -251.18, -56.61 -260.05, -63.48 -268.89" stroke="#1e1e1e" stroke-width="2" fill="none"></path></g><g transform="translate(584.3428422876168 373.2943526471331) rotate(0 -31.00511199768107 -133.81979537118582)"><path d="M-67.24 -239.12 C-63.92 -248.74, -63.76 -256.21, -63.48 -268.89 M-67.24 -239.12 C-65.79 -247.82, -64.49 -258.07, -63.48 -268.89" stroke="#1e1e1e" stroke-width="2" fill="none"></path></g></g><mask id="mask-URKT37AJ6esH5IVTrdW-C"><rect x="0" y="0" fill="#fff" width="746.353066282979" height="740.9339433895047"></rect><rect x="451.6238631024353" y="204.97455727594752" fill="#000" width="203.427734375" height="69" opacity="1"></rect></mask><g transform="translate(451.6238631024353 204.97455727594752) rotate(0 100.91433038302739 34.45891128248513)"><text x="101.7138671875" y="0" font-family="Helvetica, Segoe UI Emoji" font-size="20px" fill="#1e1e1e" text-anchor="middle" style="white-space: pre;" direction="ltr" dominant-baseline="text-before-edge">POST:</text><text x="101.7138671875" y="23" font-family="Helvetica, Segoe UI Emoji" font-size="20px" fill="#1e1e1e" text-anchor="middle" style="white-space: pre;" direction="ltr" dominant-baseline="text-before-edge">Room Finish Boundary</text><text x="101.7138671875" y="46" font-family="Helvetica, Segoe UI Emoji" font-size="20px" fill="#1e1e1e" text-anchor="middle" style="white-space: pre;" direction="ltr" dominant-baseline="text-before-edge">Obstacles as Point2D[]</text></g><g stroke-linecap="round" transform="translate(10 357.9880952380945) rotate(0 176.45833333333303 58.54166666666674)"><path d="M29.27 0 C89.56 -2.71, 149.71 -0.82, 323.65 0 M29.27 0 C143.78 -1.23, 258.9 -1.78, 323.65 0 M323.65 0 C343.61 -0.94, 352.72 11.55, 352.92 29.27 M323.65 0 C343.19 -1.88, 352.76 7.61, 352.92 29.27 M352.92 29.27 C354.26 48.94, 353.17 64.7, 352.92 87.81 M352.92 29.27 C353.6 46.84, 353.25 64.51, 352.92 87.81 M352.92 87.81 C352.55 108.67, 345.08 115.26, 323.65 117.08 M352.92 87.81 C353.94 107.06, 342.3 119.22, 323.65 117.08 M323.65 117.08 C253.34 116.79, 186.73 117.74, 29.27 117.08 M323.65 117.08 C262.74 115.92, 201.95 116.15, 29.27 117.08 M29.27 117.08 C10.3 117.65, 0.33 108.29, 0 87.81 M29.27 117.08 C8.64 116.41, -2.03 105.15, 0 87.81 M0 87.81 C2 64.98, -0.53 45.4, 0 29.27 M0 87.81 C0.07 65.53, -0.73 45.73, 0 29.27 M0 29.27 C0.57 11.48, 8.25 -1.32, 29.27 0 M0 29.27 C-2.02 9.84, 11.26 0.63, 29.27 0" stroke="#1971c2" stroke-width="2" fill="none"></path></g><g transform="translate(56.93684895833303 382.0297619047615) rotate(0 129.521484375 34.5)"><text x="129.521484375" y="0" font-family="Helvetica, Segoe UI Emoji" font-size="20px" fill="#1971c2" text-anchor="middle" style="white-space: pre;" direction="ltr" dominant-baseline="text-before-edge">Synthetic Dataset containing:</text><text x="129.521484375" y="23" font-family="Helvetica, Segoe UI Emoji" font-size="20px" fill="#1971c2" text-anchor="middle" style="white-space: pre;" direction="ltr" dominant-baseline="text-before-edge">- Room Finish Boundaries</text><text x="129.521484375" y="46" font-family="Helvetica, Segoe UI Emoji" font-size="20px" fill="#1971c2" text-anchor="middle" style="white-space: pre;" direction="ltr" dominant-baseline="text-before-edge">- Room Obstacle Boundaries</text></g><g mask="url(#mask-KoRec-zXD96nhJDqsGxKZ)" stroke-linecap="round"><g transform="translate(366.45833333333394 427.4020712711699) rotate(0 109.07738095238119 1.3529108896536854)"><path d="M1.03 0.52 C37.24 0.72, 182.04 1.44, 218.21 1.71 M0.11 -0.25 C36.09 0.01, 181.1 2.16, 217.29 2.72" stroke="#1e1e1e" stroke-width="2" fill="none"></path></g><g transform="translate(366.45833333333394 427.4020712711699) rotate(0 109.07738095238119 1.3529108896536854)"><path d="M188.95 12.56 C200.54 8.67, 208.79 4.69, 217.29 2.72 M188.95 12.56 C195.08 9.95, 203.26 7.87, 217.29 2.72" stroke="#1e1e1e" stroke-width="2" fill="none"></path></g><g transform="translate(366.45833333333394 427.4020712711699) rotate(0 109.07738095238119 1.3529108896536854)"><path d="M189.26 -7.96 C200.83 -4.05, 208.95 -0.23, 217.29 2.72 M189.26 -7.96 C195.44 -5.4, 203.54 -2.32, 217.29 2.72" stroke="#1e1e1e" stroke-width="2" fill="none"></path></g></g><mask id="mask-KoRec-zXD96nhJDqsGxKZ"><rect x="0" y="0" fill="#fff" width="684.6130952380963" height="530.1078930504773"></rect><rect x="445.5357142857156" y="417.2549821608236" fill="#000" width="60" height="23" opacity="1"></rect></mask><g transform="translate(445.5357142857156 417.2549821608236) rotate(0 30.08440792523288 11.381926965787898)"><text x="30" y="0" font-family="Helvetica, Segoe UI Emoji" font-size="20px" fill="#1e1e1e" text-anchor="middle" style="white-space: pre;" direction="ltr" dominant-baseline="text-before-edge">INPUT</text></g><g mask="url(#mask-ncAg5qMxECwcPXb2HdYmg)" stroke-linecap="round"><g transform="translate(867.0195461440753 102.6190476190468) rotate(0 -47.661959670370834 135.2343436044307)"><path d="M-0.26 -1.06 C-16.34 44.02, -79.52 224.21, -95.43 269.29 M1.8 1 C-14.53 46.28, -80.02 225.34, -96.44 270.21" stroke="#1e1e1e" stroke-width="2" fill="none"></path></g><g transform="translate(867.0195461440753 102.6190476190468) rotate(0 -47.661959670370834 135.2343436044307)"><path d="M-96.39 240.21 C-98.46 251.56, -98.68 262.61, -96.44 270.21 M-96.39 240.21 C-96.02 247.26, -96.64 253.56, -96.44 270.21" stroke="#1e1e1e" stroke-width="2" fill="none"></path></g><g transform="translate(867.0195461440753 102.6190476190468) rotate(0 -47.661959670370834 135.2343436044307)"><path d="M-77.12 247.26 C-86.52 255.86, -94.15 264.2, -96.44 270.21 M-77.12 247.26 C-80.84 252.78, -85.58 257.57, -96.44 270.21" stroke="#1e1e1e" stroke-width="2" fill="none"></path></g></g><mask id="mask-ncAg5qMxECwcPXb2HdYmg"><rect x="0" y="0" fill="#fff" width="1062.343465484817" height="473.0877348279082"></rect><rect x="750.4220395987049" y="191.8533912234775" fill="#000" width="137.87109375" height="92" opacity="1"></rect></mask><g transform="translate(750.4220395987049 191.8533912234775) rotate(0 69.27986190983984 45.34124196550806)"><text x="68.935546875" y="0" font-family="Helvetica, Segoe UI Emoji" font-size="20px" fill="#1e1e1e" text-anchor="middle" style="white-space: pre;" direction="ltr" dominant-baseline="text-before-edge">RES:</text><text x="68.935546875" y="23" font-family="Helvetica, Segoe UI Emoji" font-size="20px" fill="#1e1e1e" text-anchor="middle" style="white-space: pre;" direction="ltr" dominant-baseline="text-before-edge">Travel Routes</text><text x="68.935546875" y="46" font-family="Helvetica, Segoe UI Emoji" font-size="20px" fill="#1e1e1e" text-anchor="middle" style="white-space: pre;" direction="ltr" dominant-baseline="text-before-edge">inside room as </text><text x="68.935546875" y="69" font-family="Helvetica, Segoe UI Emoji" font-size="20px" fill="#1e1e1e" text-anchor="middle" style="white-space: pre;" direction="ltr" dominant-baseline="text-before-edge">node-link graph</text></g><g mask="url(#mask-7Rb48f31lYu-r2u1ld650)" stroke-linecap="round"><g transform="translate(1365.708333333334 401.3246635112964) rotate(0 122.08333333333348 6.01394074731752)"><path d="M-0.12 -0.52 C40.34 1.65, 202.36 10.59, 243.24 12.5 M-1.65 1.82 C39.15 3.67, 204.38 8.99, 245.46 10.63" stroke="#1e1e1e" stroke-width="2" fill="none"></path></g><g transform="translate(1365.708333333334 401.3246635112964) rotate(0 122.08333333333348 6.01394074731752)"><path d="M216.92 19.88 C225.73 15.23, 237.02 15.22, 245.46 10.63 M216.92 19.88 C223.45 17.83, 228.61 15.76, 245.46 10.63" stroke="#1e1e1e" stroke-width="2" fill="none"></path></g><g transform="translate(1365.708333333334 401.3246635112964) rotate(0 122.08333333333348 6.01394074731752)"><path d="M217.65 -0.63 C226.13 1.65, 237.17 8.56, 245.46 10.63 M217.65 -0.63 C223.99 1.62, 228.99 3.83, 245.46 10.63" stroke="#1e1e1e" stroke-width="2" fill="none"></path></g></g><mask id="mask-7Rb48f31lYu-r2u1ld650"><rect x="0" y="0" fill="#fff" width="1709.875000000001" height="513.3525450059315"></rect><rect x="1417.9674479166679" y="395.83860425861394" fill="#000" width="139.6484375" height="23" opacity="1"></rect></mask><g transform="translate(1417.9674479166679 395.83860425861394) rotate(0 69.64562458911837 11.477278338000133)"><text x="69.82421875" y="0" font-family="Helvetica, Segoe UI Emoji" font-size="20px" fill="#1e1e1e" text-anchor="middle" style="white-space: pre;" direction="ltr" dominant-baseline="text-before-edge">USE TO TRAIN</text></g><g stroke-linecap="round" transform="translate(2336.4226190476193 132.3690476190468) rotate(0 217.1428571428571 121.33928571428578)"><path d="M32 0 C158.77 1.91, 287.22 2.01, 402.29 0 M32 0 C116.84 -2.38, 202.66 -2.05, 402.29 0 M402.29 0 C424.1 1.5, 434.52 11.03, 434.29 32 M402.29 0 C425.56 0.33, 436.55 11.81, 434.29 32 M434.29 32 C432.4 80.11, 433.89 127.52, 434.29 210.68 M434.29 32 C433.4 72.03, 433.66 110.68, 434.29 210.68 M434.29 210.68 C434.17 230.46, 424.35 242.33, 402.29 242.68 M434.29 210.68 C435.59 232.44, 424.2 244.3, 402.29 242.68 M402.29 242.68 C324.09 241.58, 245.22 241.96, 32 242.68 M402.29 242.68 C308.48 242.94, 214.7 242.09, 32 242.68 M32 242.68 C9.81 243.82, -0.59 230.92, 0 210.68 M32 242.68 C9.44 243.36, 0.43 229.86, 0 210.68 M0 210.68 C0.54 163.36, 0.81 118.58, 0 32 M0 210.68 C-0.21 157.78, -1.17 103.18, 0 32 M0 32 C0.15 11.57, 10.71 -1.82, 32 0 M0 32 C1.22 8.86, 10.68 0.83, 32 0" stroke="#2f9e44" stroke-width="2" fill="none"></path></g><g transform="translate(2407.584030877976 173.20833333333212) rotate(0 145.9814453125 80.5)"><text x="145.9814453125" y="0" font-family="Helvetica, Segoe UI Emoji" font-size="20px" fill="#2f9e44" text-anchor="middle" style="white-space: pre;" direction="ltr" dominant-baseline="text-before-edge">LEVEL 1 INFERENCE:</text><text x="145.9814453125" y="23" font-family="Helvetica, Segoe UI Emoji" font-size="20px" fill="#2f9e44" text-anchor="middle" style="white-space: pre;" direction="ltr" dominant-baseline="text-before-edge"></text><text x="145.9814453125" y="46" font-family="Helvetica, Segoe UI Emoji" font-size="20px" fill="#2f9e44" text-anchor="middle" style="white-space: pre;" direction="ltr" dominant-baseline="text-before-edge">Classify ACCEPTABLE == 0 or 1</text><text x="145.9814453125" y="69" font-family="Helvetica, Segoe UI Emoji" font-size="20px" fill="#2f9e44" text-anchor="middle" style="white-space: pre;" direction="ltr" dominant-baseline="text-before-edge">Given:</text><text x="145.9814453125" y="92" font-family="Helvetica, Segoe UI Emoji" font-size="20px" fill="#2f9e44" text-anchor="middle" style="white-space: pre;" direction="ltr" dominant-baseline="text-before-edge">- Room Finish Boundary</text><text x="145.9814453125" y="115" font-family="Helvetica, Segoe UI Emoji" font-size="20px" fill="#2f9e44" text-anchor="middle" style="white-space: pre;" direction="ltr" dominant-baseline="text-before-edge">- Room Obstacles</text><text x="145.9814453125" y="138" font-family="Helvetica, Segoe UI Emoji" font-size="20px" fill="#2f9e44" text-anchor="middle" style="white-space: pre;" direction="ltr" dominant-baseline="text-before-edge">- Extinguisher Placements</text></g><g mask="url(#mask-ftbUlP5VRFsZ4ykDMlaCx)" stroke-linecap="round"><g transform="translate(1847.5220431888865 363.9707576202759) rotate(0 239.45028792936637 -95.06744737483973)"><path d="M-0.18 0.83 C79.85 -30.94, 399.31 -157.45, 479.13 -189.46 M-1.73 0.21 C78.25 -31.39, 398.37 -159.44, 478.31 -191.23" stroke="#1e1e1e" stroke-width="2" fill="none"></path></g><g transform="translate(1847.5220431888865 363.9707576202759) rotate(0 239.45028792936637 -95.06744737483973)"><path d="M455.93 -171.25 C461.92 -175.12, 466.48 -180.03, 478.31 -191.23 M455.93 -171.25 C459.59 -174.44, 464.87 -178.92, 478.31 -191.23" stroke="#1e1e1e" stroke-width="2" fill="none"></path></g><g transform="translate(1847.5220431888865 363.9707576202759) rotate(0 239.45028792936637 -95.06744737483973)"><path d="M448.32 -190.31 C456.13 -190.07, 462.33 -190.89, 478.31 -191.23 M448.32 -190.31 C453.6 -189.49, 460.46 -189.99, 478.31 -191.23" stroke="#1e1e1e" stroke-width="2" fill="none"></path></g></g><mask id="mask-ftbUlP5VRFsZ4ykDMlaCx"><rect x="0" y="0" fill="#fff" width="2426.4226190476193" height="654.1056523699554"></rect><rect x="2016.923502993253" y="257.40331024543593" fill="#000" width="140.09765625" height="23" opacity="1"></rect></mask><g transform="translate(2016.923502993253 257.40331024543593) rotate(0 69.30170676612306 11.367453090166919)"><text x="70.048828125" y="0" font-family="Helvetica, Segoe UI Emoji" font-size="20px" fill="#1e1e1e" text-anchor="middle" style="white-space: pre;" direction="ltr" dominant-baseline="text-before-edge">/api/v1/evaluate</text></g><g mask="url(#mask-5XTL494QIHk6Lottt1fnL)" stroke-linecap="round"><g transform="translate(1840.142857142856 426.58524970018243) rotate(0 230.3422619047626 27.162260629457705)"><path d="M0.89 0.09 C77.79 9.1, 383.86 45.68, 460.6 54.65 M-0.1 -0.91 C76.7 7.67, 382.78 43.38, 459.61 52.7" stroke="#1e1e1e" stroke-width="2" fill="none"></path></g><g transform="translate(1840.142857142856 426.58524970018243) rotate(0 230.3422619047626 27.162260629457705)"><path d="M430.41 59.57 C437.44 57.59, 444.76 57.17, 459.61 52.7 M430.41 59.57 C437.26 58.62, 446.56 55.86, 459.61 52.7" stroke="#1e1e1e" stroke-width="2" fill="none"></path></g><g transform="translate(1840.142857142856 426.58524970018243) rotate(0 230.3422619047626 27.162260629457705)"><path d="M432.83 39.19 C439.39 42.06, 446.13 46.47, 459.61 52.7 M432.83 39.19 C438.84 43.63, 447.49 46.29, 459.61 52.7" stroke="#1e1e1e" stroke-width="2" fill="none"></path></g></g><mask id="mask-5XTL494QIHk6Lottt1fnL"><rect x="0" y="0" fill="#fff" width="2400.827380952381" height="580.9097709590978"></rect><rect x="1998.7663690476184" y="442.24751032964014" fill="#000" width="143.4375" height="23" opacity="1"></rect></mask><g transform="translate(1998.7663690476184 442.24751032964014) rotate(0 71.62866623380228 11.206521866684852)"><text x="71.71875" y="0" font-family="Helvetica, Segoe UI Emoji" font-size="20px" fill="#1e1e1e" text-anchor="middle" style="white-space: pre;" direction="ltr" dominant-baseline="text-before-edge">/api/v1/generate</text></g><g stroke-linecap="round" transform="translate(2322.2559523809537 442.98214285714494) rotate(0 223.57142857142844 154.28571428571422)"><path d="M32 0 C142.08 -2.39, 252.96 -0.91, 415.14 0 M32 0 C123.45 1.43, 214.19 1.41, 415.14 0 M415.14 0 C436.92 -1.5, 446.52 11.5, 447.14 32 M415.14 0 C437.48 -1.59, 445.57 12.34, 447.14 32 M447.14 32 C447.18 118.18, 448.71 206.61, 447.14 276.57 M447.14 32 C447.89 127.85, 448.39 221.79, 447.14 276.57 M447.14 276.57 C448.26 299.03, 437.94 308.97, 415.14 308.57 M447.14 276.57 C448.02 298.46, 437.67 310.57, 415.14 308.57 M415.14 308.57 C311.28 306.42, 207.79 306.4, 32 308.57 M415.14 308.57 C275.94 307.21, 136.37 308.09, 32 308.57 M32 308.57 C11.09 308.77, 1.47 298.48, 0 276.57 M32 308.57 C8.61 306.8, 1.27 300.13, 0 276.57 M0 276.57 C0.06 179.91, -0.37 84.91, 0 32 M0 276.57 C-0.09 209.76, -1.06 143.51, 0 32 M0 32 C1.28 10.89, 10.52 0.25, 32 0 M0 32 C2.2 8.5, 11.16 0.68, 32 0" stroke="#2f9e44" stroke-width="2" fill="none"></path></g><g transform="translate(2335.710193452382 482.26785714285916) rotate(0 210.1171875 115)"><text x="210.1171875" y="0" font-family="Helvetica, Segoe UI Emoji" font-size="20px" fill="#2f9e44" text-anchor="middle" style="white-space: pre;" direction="ltr" dominant-baseline="text-before-edge">LEVEL 2 INFERENCE:</text><text x="210.1171875" y="23" font-family="Helvetica, Segoe UI Emoji" font-size="20px" fill="#2f9e44" text-anchor="middle" style="white-space: pre;" direction="ltr" dominant-baseline="text-before-edge"></text><text x="210.1171875" y="46" font-family="Helvetica, Segoe UI Emoji" font-size="20px" fill="#2f9e44" text-anchor="middle" style="white-space: pre;" direction="ltr" dominant-baseline="text-before-edge">Generate Point2D[] of extinguisher placements </text><text x="210.1171875" y="69" font-family="Helvetica, Segoe UI Emoji" font-size="20px" fill="#2f9e44" text-anchor="middle" style="white-space: pre;" direction="ltr" dominant-baseline="text-before-edge"></text><text x="210.1171875" y="92" font-family="Helvetica, Segoe UI Emoji" font-size="20px" fill="#2f9e44" text-anchor="middle" style="white-space: pre;" direction="ltr" dominant-baseline="text-before-edge">Given:</text><text x="210.1171875" y="115" font-family="Helvetica, Segoe UI Emoji" font-size="20px" fill="#2f9e44" text-anchor="middle" style="white-space: pre;" direction="ltr" dominant-baseline="text-before-edge">- Room Finish Boundary</text><text x="210.1171875" y="138" font-family="Helvetica, Segoe UI Emoji" font-size="20px" fill="#2f9e44" text-anchor="middle" style="white-space: pre;" direction="ltr" dominant-baseline="text-before-edge">- Room Obstacles</text><text x="210.1171875" y="161" font-family="Helvetica, Segoe UI Emoji" font-size="20px" fill="#2f9e44" text-anchor="middle" style="white-space: pre;" direction="ltr" dominant-baseline="text-before-edge"></text><text x="210.1171875" y="184" font-family="Helvetica, Segoe UI Emoji" font-size="20px" fill="#2f9e44" text-anchor="middle" style="white-space: pre;" direction="ltr" dominant-baseline="text-before-edge">Where:</text><text x="210.1171875" y="207" font-family="Helvetica, Segoe UI Emoji" font-size="20px" fill="#2f9e44" text-anchor="middle" style="white-space: pre;" direction="ltr" dominant-baseline="text-before-edge">- ACCEPTABLE == 1</text></g><g mask="url(#mask-sEzP4ugC8XNZYtfixKWl1)" stroke-linecap="round"><g transform="translate(1376.188051021455 748.7957633264755) rotate(0 127.6687820101074 -147.3736304693382)"><path d="M0.26 1.08 C42.79 -47.83, 214.01 -244.48, 256.34 -293.67 M-1.06 0.6 C41.29 -48.6, 212.98 -245.78, 255.92 -295.23" stroke="#1e1e1e" stroke-width="2" fill="none"></path></g><g transform="translate(1376.188051021455 748.7957633264755) rotate(0 127.6687820101074 -147.3736304693382)"><path d="M245.16 -267.23 C251.27 -276.68, 255.52 -291.32, 255.92 -295.23 M245.16 -267.23 C249.98 -277.77, 253.17 -287.68, 255.92 -295.23" stroke="#1e1e1e" stroke-width="2" fill="none"></path></g><g transform="translate(1376.188051021455 748.7957633264755) rotate(0 127.6687820101074 -147.3736304693382)"><path d="M229.67 -280.69 C241.9 -284.84, 252.29 -294.15, 255.92 -295.23 M229.67 -280.69 C239.9 -286.47, 248.56 -291.63, 255.92 -295.23" stroke="#1e1e1e" stroke-width="2" fill="none"></path></g></g><mask id="mask-sEzP4ugC8XNZYtfixKWl1"><rect x="0" y="0" fill="#fff" width="1731.5256150416699" height="1143.5430242651519"></rect><rect x="1396.034567406563" y="543.9221328571375" fill="#000" width="215.64453125" height="115" opacity="1"></rect></mask><g transform="translate(1396.034567406563 543.9221328571375) rotate(0 107.79054342069617 57.79715194231812)"><text x="107.822265625" y="0" font-family="Helvetica, Segoe UI Emoji" font-size="20px" fill="#1e1e1e" text-anchor="middle" style="white-space: pre;" direction="ltr" dominant-baseline="text-before-edge">POST:</text><text x="107.822265625" y="23" font-family="Helvetica, Segoe UI Emoji" font-size="20px" fill="#1e1e1e" text-anchor="middle" style="white-space: pre;" direction="ltr" dominant-baseline="text-before-edge">- Room Finish Boundary</text><text x="107.822265625" y="46" font-family="Helvetica, Segoe UI Emoji" font-size="20px" fill="#1e1e1e" text-anchor="middle" style="white-space: pre;" direction="ltr" dominant-baseline="text-before-edge">as Point2D[]</text><text x="107.822265625" y="69" font-family="Helvetica, Segoe UI Emoji" font-size="20px" fill="#1e1e1e" text-anchor="middle" style="white-space: pre;" direction="ltr" dominant-baseline="text-before-edge">- Room Obstacles as </text><text x="107.822265625" y="92" font-family="Helvetica, Segoe UI Emoji" font-size="20px" fill="#1e1e1e" text-anchor="middle" style="white-space: pre;" direction="ltr" dominant-baseline="text-before-edge">Point2D[]</text></g><g mask="url(#mask-VFyy6LVRH1CVIfBhhnQbX)" stroke-linecap="round"><g transform="translate(1779.5882433484712 455.03571428571377) rotate(0 92.6398690354672 148.94345238095093)"><path d="M-0.22 0.78 C30.73 50.45, 153.75 248.63, 184.62 297.99 M-1.79 0.14 C29.64 50.03, 156.01 249.97, 186.99 299.58" stroke="#1e1e1e" stroke-width="2" fill="none"></path></g><g transform="translate(1779.5882433484712 455.03571428571377) rotate(0 92.6398690354672 148.94345238095093)"><path d="M163.3 281.18 C169.58 284, 173.44 288.49, 186.99 299.58 M163.3 281.18 C167.86 286.14, 173.35 288.54, 186.99 299.58" stroke="#1e1e1e" stroke-width="2" fill="none"></path></g><g transform="translate(1779.5882433484712 455.03571428571377) rotate(0 92.6398690354672 148.94345238095093)"><path d="M180.67 270.25 C183.28 275.35, 183.49 282.14, 186.99 299.58 M180.67 270.25 C181.46 277.54, 183.1 282.37, 186.99 299.58" stroke="#1e1e1e" stroke-width="2" fill="none"></path></g></g><mask id="mask-VFyy6LVRH1CVIfBhhnQbX"><rect x="0" y="0" fill="#fff" width="2064.8679814194056" height="852.9226190476156"></rect><rect x="1763.1070186339384" y="500.4791666666647" fill="#000" width="218.2421875" height="207" opacity="1"></rect></mask><g transform="translate(1763.1070186339384 500.4791666666647) rotate(0 109.07906947532683 104.41623724451279)"><text x="109.12109375" y="0" font-family="Helvetica, Segoe UI Emoji" font-size="20px" fill="#1e1e1e" text-anchor="middle" style="white-space: pre;" direction="ltr" dominant-baseline="text-before-edge">RES:</text><text x="109.12109375" y="23" font-family="Helvetica, Segoe UI Emoji" font-size="20px" fill="#1e1e1e" text-anchor="middle" style="white-space: pre;" direction="ltr" dominant-baseline="text-before-edge">- ACCEPTABLE = 0 or 1</text><text x="109.12109375" y="46" font-family="Helvetica, Segoe UI Emoji" font-size="20px" fill="#1e1e1e" text-anchor="middle" style="white-space: pre;" direction="ltr" dominant-baseline="text-before-edge">- Extinguisher position </text><text x="109.12109375" y="69" font-family="Helvetica, Segoe UI Emoji" font-size="20px" fill="#1e1e1e" text-anchor="middle" style="white-space: pre;" direction="ltr" dominant-baseline="text-before-edge">options as Point2D[]</text><text x="109.12109375" y="92" font-family="Helvetica, Segoe UI Emoji" font-size="20px" fill="#1e1e1e" text-anchor="middle" style="white-space: pre;" direction="ltr" dominant-baseline="text-before-edge">- Most remote point as </text><text x="109.12109375" y="115" font-family="Helvetica, Segoe UI Emoji" font-size="20px" fill="#1e1e1e" text-anchor="middle" style="white-space: pre;" direction="ltr" dominant-baseline="text-before-edge">Point2D</text><text x="109.12109375" y="138" font-family="Helvetica, Segoe UI Emoji" font-size="20px" fill="#1e1e1e" text-anchor="middle" style="white-space: pre;" direction="ltr" dominant-baseline="text-before-edge">- Travel Routes taken to </text><text x="109.12109375" y="161" font-family="Helvetica, Segoe UI Emoji" font-size="20px" fill="#1e1e1e" text-anchor="middle" style="white-space: pre;" direction="ltr" dominant-baseline="text-before-edge">reach Extinguishers (for </text><text x="109.12109375" y="184" font-family="Helvetica, Segoe UI Emoji" font-size="20px" fill="#1e1e1e" text-anchor="middle" style="white-space: pre;" direction="ltr" dominant-baseline="text-before-edge">explainability)</text></g><g mask="url(#mask-U4M6R8G4hl0SyUpZjTxuD)" stroke-linecap="round"><g transform="translate(1609.1035722694633 362.5186814262388) rotate(0 -97.2663254696854 -134.2533883321662)"><path d="M0.07 0.73 C-32.01 -44.06, -160.97 -224.44, -193.41 -269.22 M-1.35 0.07 C-33.42 -44.54, -161.43 -223.04, -193.77 -268.05" stroke="#1e1e1e" stroke-width="2" fill="none"></path></g><g transform="translate(1609.1035722694633 362.5186814262388) rotate(0 -97.2663254696854 -134.2533883321662)"><path d="M-169 -251.13 C-173.32 -253.08, -181.32 -258.87, -193.77 -268.05 M-169 -251.13 C-178.01 -256.7, -186.38 -263.52, -193.77 -268.05" stroke="#1e1e1e" stroke-width="2" fill="none"></path></g><g transform="translate(1609.1035722694633 362.5186814262388) rotate(0 -97.2663254696854 -134.2533883321662)"><path d="M-185.67 -239.16 C-186.17 -243.82, -190.41 -252.32, -193.77 -268.05 M-185.67 -239.16 C-188.76 -249.01, -191.33 -259.99, -193.77 -268.05" stroke="#1e1e1e" stroke-width="2" fill="none"></path></g></g><mask id="mask-U4M6R8G4hl0SyUpZjTxuD"><rect x="0" y="0" fill="#fff" width="1903.636223208834" height="731.0254580905712"></rect><rect x="1410.1233796122779" y="193.7652930940726" fill="#000" width="203.427734375" height="69" opacity="1"></rect></mask><g transform="translate(1410.1233796122779 193.7652930940726) rotate(0 102.12956140213646 34.51266450695698)"><text x="101.7138671875" y="0" font-family="Helvetica, Segoe UI Emoji" font-size="20px" fill="#1e1e1e" text-anchor="middle" style="white-space: pre;" direction="ltr" dominant-baseline="text-before-edge">POST:</text><text x="101.7138671875" y="23" font-family="Helvetica, Segoe UI Emoji" font-size="20px" fill="#1e1e1e" text-anchor="middle" style="white-space: pre;" direction="ltr" dominant-baseline="text-before-edge">Room Finish Boundary</text><text x="101.7138671875" y="46" font-family="Helvetica, Segoe UI Emoji" font-size="20px" fill="#1e1e1e" text-anchor="middle" style="white-space: pre;" direction="ltr" dominant-baseline="text-before-edge">Obstacles as Point2D[]</text></g><g mask="url(#mask-3Ig92wYkmcYbWq1EwyidI)" stroke-linecap="round"><g transform="translate(1824.848798938774 101.07123982688609) rotate(0 -51.562549108357416 127.0200578901447)"><path d="M0.36 0.59 C-16.76 42.85, -86.36 211.51, -103.51 253.63 M-0.91 -0.15 C-18.15 42.27, -87.65 212.55, -104.65 254.94" stroke="#1e1e1e" stroke-width="2" fill="none"></path></g><g transform="translate(1824.848798938774 101.07123982688609) rotate(0 -51.562549108357416 127.0200578901447)"><path d="M-103.58 224.96 C-102.84 231.33, -104.76 240.01, -104.65 254.94 M-103.58 224.96 C-104.07 231.58, -104.33 239.26, -104.65 254.94" stroke="#1e1e1e" stroke-width="2" fill="none"></path></g><g transform="translate(1824.848798938774 101.07123982688609) rotate(0 -51.562549108357416 127.0200578901447)"><path d="M-84.56 232.67 C-88.26 237.3, -94.62 244.17, -104.65 254.94 M-84.56 232.67 C-89.59 237.46, -94.34 243.32, -104.65 254.94" stroke="#1e1e1e" stroke-width="2" fill="none"></path></g></g><mask id="mask-3Ig92wYkmcYbWq1EwyidI"><rect x="0" y="0" fill="#fff" width="2027.9738971554889" height="455.1113556071755"></rect><rect x="1664.8975779554166" y="182.091297717031" fill="#000" width="216.77734375" height="92" opacity="1"></rect></mask><g transform="translate(1664.8975779554166 182.091297717031) rotate(0 107.80512203955095 46.377238065208985)"><text x="108.388671875" y="0" font-family="Helvetica, Segoe UI Emoji" font-size="20px" fill="#1e1e1e" text-anchor="middle" style="white-space: pre;" direction="ltr" dominant-baseline="text-before-edge">RES:</text><text x="108.388671875" y="23" font-family="Helvetica, Segoe UI Emoji" font-size="20px" fill="#1e1e1e" text-anchor="middle" style="white-space: pre;" direction="ltr" dominant-baseline="text-before-edge">Travel Routes</text><text x="108.388671875" y="46" font-family="Helvetica, Segoe UI Emoji" font-size="20px" fill="#1e1e1e" text-anchor="middle" style="white-space: pre;" direction="ltr" dominant-baseline="text-before-edge">inside room as node-link</text><text x="108.388671875" y="69" font-family="Helvetica, Segoe UI Emoji" font-size="20px" fill="#1e1e1e" text-anchor="middle" style="white-space: pre;" direction="ltr" dominant-baseline="text-before-edge">graph</text></g></svg>